<?xml version="1.0" encoding="utf-8"?>
<!-- Generator: Adobe Illustrator 19.1.0, SVG Export Plug-In . SVG Version: 6.00 Build 0)  -->
<svg version="1.1" id="Ebene_1" xmlns="http://www.w3.org/2000/svg" xmlns:xlink="http://www.w3.org/1999/xlink" x="0px" y="0px"
	 viewBox="-294 390 22 13" style="enable-background:new -294 390 22 13;" xml:space="preserve">
<style type="text/css">
	.st0{fill:#53585E;}
</style>
<title>Shape Copy</title>
<desc>Created with Sketch.</desc>
<g id="Page-1">
	<g id="S-JM-Landing-Treatment-01--Copy" transform="translate(-321.000000, -306.000000)">
		<g id="Group-5" transform="translate(0.000000, 286.000000)">
			<g id="Group-6-Copy-4">
				<path id="Shape-Copy" class="st0" d="M27.7,422.2c0.6,0.6,1.6,0.6,2.1,0l8.3-8.3l8.3,8.3c0.6,0.6,1.6,0.6,2.1,0
					c0.3-0.3,0.4-0.7,0.4-1.1c0-0.4-0.1-0.8-0.4-1.1l-9.4-9.4c-0.3-0.3-0.7-0.4-1.1-0.4c-0.4,0-0.8,0.2-1.1,0.4l-9.4,9.4
					C27.1,420.7,27.1,421.7,27.7,422.2L27.7,422.2z"/>
			</g>
		</g>
	</g>
</g>
</svg>
