<svg width="16px" height="17px" viewBox="146 12 16 17" version="1.1" xmlns="http://www.w3.org/2000/svg" xmlns:xlink="http://www.w3.org/1999/xlink">
    <!-- Generator: Sketch 3.8.3 (29802) - http://www.bohemiancoding.com/sketch -->
    <desc>Created with Sketch.</desc>
    <defs></defs>
    <g id="scroll-toclinics" stroke="none" stroke-width="1" fill="none" fill-rule="evenodd" transform="translate(147.000000, 13.000000)">
        <path d="M10.7023141,4.6844712 C10.3207735,4.30285613 9.70210129,4.30285613 9.32100755,4.6844712 L3.2977604,10.7075694 C3.11454942,10.8907059 3.0115491,11.1392323 3.0115491,11.3981854 C3.0115491,11.657213 3.11454942,11.9055905 3.2977604,12.088727 L9.32100755,18.1119741 C9.51181509,18.3027817 9.76175657,18.3982599 10.0116236,18.3982599 C10.2614161,18.3982599 10.5120279,18.3028561 10.7021651,18.1119741 C11.0837057,17.7307314 11.0837057,17.1120592 10.7021651,16.7308166 L5.36990637,11.3980365 L10.7021651,6.06555429 C11.0838547,5.68438608 11.0838547,5.06578836 10.7023141,4.6844712 L10.7023141,4.6844712 Z" id="Shape-Copy" fill="#FFFFFF" transform="translate(7.000000, 11.398260) rotate(-90.000000) translate(-7.000000, -11.398260) "></path>
        <path d="M7,14 L7,0.468780518" id="Line" stroke="#FFFFFF" stroke-width="2" stroke-linecap="round"></path>
    </g>
</svg>