<svg class="svg svg--angle-circle-o-right" viewBox="0 0 46 46" xmlns="http://www.w3.org/2000/svg"><g stroke="#5F6258" fill="#5F6258" fill-rule="evenodd"><path d="M22.118,44.236 C9.922,44.236 0,34.314 0,22.118 C0,9.922 9.922,0 22.118,0 C34.314,0 44.236,9.922 44.236,22.118 C44.236,34.314 34.314,44.236 22.118,44.236 L22.118,44.236 Z M22.118,1.5 C10.75,1.5 1.5,10.749 1.5,22.118 C1.5,33.486 10.75,42.736 22.118,42.736 C33.488,42.736 42.736,33.486 42.736,22.118 C42.736,10.749 33.488,1.5 22.118,1.5 L22.118,1.5 Z" transform="translate(1 1)"/><path d="M19.341,29.884 C19.149,29.884 18.957,29.811 18.811,29.664 C18.518,29.372 18.518,28.896 18.811,28.603 L25.607,21.799 L18.811,14.996 C18.519,14.703 18.519,14.227 18.811,13.935 C19.104,13.642 19.579,13.642 19.872,13.935 L27.197,21.268 C27.49,21.561 27.49,22.036 27.197,22.329 L19.872,29.662 C19.725,29.811 19.533,29.884 19.341,29.884 L19.341,29.884 Z" transform="translate(1 1)"/></g></svg>