<svg viewBox="0 0 19 16" xmlns="http://www.w3.org/2000/svg"><path d="M164.730867,1.08357767e-13 C165.506378,1.08357767e-13 166.281888,0.0227596017 167.033163,0.0227596017 C167.227041,0.0227596017 167.469388,0.0227596017 167.469388,0.27311522 C167.469388,1.00142248 166.233418,1.00142248 165.700255,1.06970128 C166.5,1.59317212 166.766582,2.6173542 166.766582,3.50497866 C166.766582,6.30440967 164.415816,6.6685633 164.415816,7.48790896 C164.415816,8.23897582 167.469388,9.3541963 167.469388,11.9260313 C167.469388,14.7937411 164.633929,16 161.968112,16 C159.665816,16 157,15.0668563 157,12.5405405 C157,9.85490754 160.15051,9.10384068 162.477041,9.10384068 C162.186224,8.35277383 161.919643,9.14935989 161.919643,7.60170697 C159.593112,7.60170697 157.945153,6.32716927 157.945153,4.07396871 C157.945153,2.23044097 159.205357,0.887624467 161.022959,0.341394026 C162.065051,0.0227596017 163.640306,1.08357767e-13 164.730867,1.08357767e-13 Z M162.646684,6.07681366 C163.809949,6.07681366 164.197704,5.07539118 164.197704,4.14224751 C164.197704,2.95874822 163.446429,1.02418208 161.919643,1.02418208 C160.780612,1.02418208 160.368622,2.04836415 160.368622,2.95874822 C160.368622,4.14224751 161.119898,6.07681366 162.646684,6.07681366 Z M162.307398,14.2247511 C163.640306,14.2247511 165.530612,13.4509246 165.530612,11.9943101 C165.530612,10.5604552 163.809949,9.94594595 162.52551,9.94594595 C161.119898,9.94594595 159.302296,10.5604552 159.302296,12.1308677 C159.302296,13.5874822 160.998724,14.2247511 162.307398,14.2247511 Z M173.576531,4.11948791 L173.576531,6.39544808 L171.952806,6.39544808 L171.952806,4.11948791 L169.529337,4.11948791 L169.529337,2.6173542 L171.952806,2.6173542 L171.952806,0.341394026 L173.576531,0.341394026 L173.576531,2.6173542 L176,2.6173542 L176,4.11948791 L173.576531,4.11948791 Z" transform="translate(-157)" fill="#969595" fill-rule="evenodd"/></svg>