<svg class="svg svg--messenger" viewBox="0 11 32 33" xmlns="http://www.w3.org/2000/svg"><g fill="none" fill-rule="evenodd"><path d="M17.5715959,19.9506215 L13.5013278,15.6050215 L5.55938969,19.9506215 L14.2955546,10.6666831 L18.4651216,15.0122831 L26.3077608,10.6666831 L17.5715959,19.9506215 Z M15.9831423,1.64102566e-05 C7.15592577,1.64102566e-05 -3.29896911e-05,6.63271385 -3.29896911e-05,14.8148677 C-3.29896911e-05,19.4770215 2.32425567,23.6357087 5.95642062,26.3512779 L5.95642062,32.0000164 L11.3985649,29.0100677 C12.8509361,29.4124472 14.3895753,29.6295549 15.9831423,29.6295549 C24.8105237,29.6295549 31.9664825,22.9968574 31.9664825,14.8148677 C31.9664825,6.63271385 24.8105237,1.64102566e-05 15.9831423,1.64102566e-05 L15.9831423,1.64102566e-05 Z" fill="#5F6258" transform="translate(0 11)"/></g></svg>