<svg class="svg svg--rss" viewBox="0 0 14 14" xmlns="http://www.w3.org/2000/svg"><path d="M80.509915,13.2549575 C80.509915,12.2832861 79.7167139,11.490085 78.7450425,11.490085 C77.7932011,11.490085 77,12.3031161 77,13.2549575 C77,14.2067989 77.7932011,15 78.7450425,15 C79.6968839,15 80.509915,14.2067989 80.509915,13.2549575 L80.509915,13.2549575 Z M86.2407932,15 C86.2407932,9.90368272 82.0963173,5.7592068 77,5.7592068 L77,8.43626062 C80.6090652,8.43626062 83.5439093,11.3909348 83.5439093,15 L86.2407932,15 Z M91,15 C91,7.28611898 84.713881,1.01983003 77,1 L77,3.67705382 C83.2464589,3.69688385 88.2832861,8.75354108 88.3031161,15 L91,15 Z" transform="translate(-77 -1)" fill="#969595" fill-rule="evenodd"/></svg>