<svg class="svg svg--search" viewBox="0 0 37 37" xmlns="http://www.w3.org/2000/svg"><path d="M35.9955458,31.6348526 L27.9795179,23.6189721 C27.9369163,23.5763705 27.8869442,23.5465936 27.8424263,23.5069402 C29.4197171,21.1143227 30.3402948,18.2502869 30.3402948,15.1702948 C30.3402948,6.79193227 23.5483625,0 15.1701474,0 C6.79193227,0 0,6.79193227 0,15.1701474 C0,23.5482151 6.79178486,30.3402948 15.17,30.3402948 C18.2501394,30.3402948 21.1140279,29.4197171 23.5066454,27.8424263 C23.5462988,27.8867968 23.5759283,27.9367689 23.6185299,27.9793705 L31.6347052,35.9955458 C32.8389004,37.1995936 34.7912032,37.1995936 35.9955458,35.9955458 C37.1995936,34.7913506 37.1995936,32.8390478 35.9955458,31.6348526 L35.9955458,31.6348526 Z M15.1701474,25.0812829 C9.69621116,25.0812829 5.25886454,20.6439363 5.25886454,15.1701474 C5.25886454,9.69621116 9.69635857,5.25886454 15.1701474,5.25886454 C20.6437888,5.25886454 25.0812829,9.69635857 25.0812829,15.1701474 C25.0812829,20.6439363 20.6437888,25.0812829 15.1701474,25.0812829 L15.1701474,25.0812829 Z" fill="#53585E" fill-rule="evenodd"/></svg>