<svg class="svg svg--send" viewBox="0 0 16 16" xmlns="http://www.w3.org/2000/svg"><path d="M231.306883,19.5023383 L235.052766,20.8152272 C235.329472,20.9125605 235.638177,20.881005 235.886648,20.7312272 L244.205236,15.7134494 L237.34406,21.8992272 C237.159119,22.0658939 237.053707,22.297005 237.052766,22.5383383 L237.029236,27.8974494 C237.027354,28.3787828 237.723354,28.5196716 237.929942,28.0796716 L239.761942,24.1774494 C239.874413,23.9383383 240.179824,23.8418939 240.421707,23.9694494 L245.28006,26.5272272 C245.585001,26.6881161 245.962883,26.4894494 245.978883,26.1601161 L246.609001,13.4654494 C246.625001,13.1414494 246.279589,12.9107828 245.961472,13.0334494 L231.293236,18.6743383 C230.895589,18.8272272 230.90453,19.3614494 231.306883,19.5023383" transform="translate(-231 -13)" fill="#FFF" fill-rule="evenodd"/></svg>