<?xml version="1.0" encoding="UTF-8" standalone="no"?>
<svg width="25px" height="25px" viewBox="0 0 25 25" version="1.1" xmlns="http://www.w3.org/2000/svg" xmlns:xlink="http://www.w3.org/1999/xlink">
    <!-- Generator: Sketch 3.6.1 (26313) - http://www.bohemiancoding.com/sketch -->
    <title>Group 2</title>
    <desc>Created with Sketch.</desc>
    <defs></defs>
    <g id="Page-1" stroke="none" stroke-width="1" fill="none" fill-rule="evenodd">
        <g id="Group-2">
            <g id="Capa_1" transform="translate(3.000000, 6.000000)" fill="#5F6258">
                <path d="M8.39881599,13.3179496 C7.5575946,14.1665501 6.19263983,14.1665501 5.35182445,13.3179496 L0.630916036,8.55562973 C-0.210305345,7.70743876 -0.210305345,6.33051071 0.630916036,5.48231975 C1.47173142,4.63371923 2.83668619,4.63371923 3.67790758,5.48231975 L6.49064007,8.31931578 C6.70297539,8.53310413 7.04766504,8.53310413 7.26040636,8.31931578 L14.8764642,0.636450387 C15.7172796,-0.212150129 17.0822344,-0.212150129 17.9234558,0.636450387 C18.3274207,1.04395884 18.5543718,1.59685976 18.5543718,2.17310538 C18.5543718,2.749351 18.3274207,3.30225191 17.9234558,3.70976037 L8.39881599,13.3179496 L8.39881599,13.3179496 Z" id="Shape"></path>
            </g>
            <rect id="Rectangle-271" stroke="#5F6258" stroke-width="2" x="1" y="1" width="23" height="23" rx="2"></rect>
        </g>
    </g>
</svg>