<?xml version="1.0" encoding="UTF-8" standalone="no"?>
<svg width="13px" height="9px" viewBox="0 0 13 9" version="1.1" xmlns="http://www.w3.org/2000/svg" xmlns:xlink="http://www.w3.org/1999/xlink">
    <!-- Generator: Sketch 3.8.3 (29802) - http://www.bohemiancoding.com/sketch -->
    <title>Page 1</title>
    <desc>Created with Sketch.</desc>

    <g id="Page-1" stroke="none" stroke-width="1" fill="none" fill-rule="evenodd">
        <g id="BD-JM-Landing-Treatment-01---NoBack" transform="translate(-1165.000000, -637.000000)">
            <g id="Startnow" transform="translate(1119.000000, 276.000000)">
                <g id="form-01" transform="translate(41.000000, 106.000000)">
                    <g id="CTA" transform="translate(0.000000, 188.000000)">
                        <g id="Group-21" transform="translate(5.000000, 62.000000)">
                            <g id="Page-1" transform="translate(0.000000, 5.000000)">
                                <g id="Clip-2"></g>
                                <path d="M12.8089065,0.766052113 L12.2071922,0.180798592 C11.9593125,-0.0602683099 11.5546509,-0.0602683099 11.3046208,0.180798592 L4.99528747,6.31965423 L1.69019223,3.10497465 C1.44231253,2.86384437 1.0376183,2.86384437 0.787620802,3.10497465 L0.185906516,3.69019648 C-0.061973183,3.93132676 -0.061973183,4.32488662 0.185906516,4.56804507 L4.54188396,8.80485845 C4.666899,8.92645352 4.82788396,8.98828099 4.99105188,8.98828099 C5.15418722,8.98828099 5.31732256,8.92645352 5.4402198,8.80485845 L12.8025206,1.64393239 C13.0567862,1.39871408 13.0567862,1.00718239 12.8089065,0.766052113" fill="#5F6258"></path>
                            </g>
                        </g>
                    </g>
                </g>
            </g>
        </g>
    </g>
</svg>