<?xml version="1.0" encoding="UTF-8" standalone="no"?>
<svg width="29px" height="26px" viewBox="0 0 29 26" version="1.1" xmlns="http://www.w3.org/2000/svg" xmlns:xlink="http://www.w3.org/1999/xlink">
    <!-- Generator: Sketch 40.2 (33826) - http://www.bohemiancoding.com/sketch -->
    <title>Capa_1</title>
    <desc>Created with Sketch.</desc>
    <defs></defs>
    <g id="Symbols" stroke="none" stroke-width="1" fill="none" fill-rule="evenodd">
        <g id="Tablet-Navbar" transform="translate(-34.000000, -17.000000)" fill="#5F6358">
            <g id="menu-button-of-three-horizontal-lines" transform="translate(34.000000, 17.000000)">
                <g id="Capa_1">
                    <g id="hamburger">
                        <g id="menu-three-horizontal-lines-symbol">
                            <g id="Navigation">
                                <path d="M1.68130877,4.20401498 L27.3186912,4.20401498 C28.2477312,4.20401498 29,3.43787404 29,2.49020566 C29,1.54491537 28.2477312,0.776 27.3186912,0.776 L1.68130877,0.776 C0.752268751,0.776 0,1.54491537 0,2.49020566 C0,3.43827039 0.752268751,4.20401498 1.68130877,4.20401498 L1.68130877,4.20401498 Z M27.3186912,11.2724875 L1.68130877,11.2724875 C0.752268751,11.2724875 0,12.0417993 0,12.9866932 C0,13.9351543 0.752268751,14.7008989 1.68130877,14.7008989 L27.3186912,14.7008989 C28.2477312,14.7008989 29,13.9347579 29,12.9866932 C29,12.0417993 28.2477312,11.2724875 27.3186912,11.2724875 L27.3186912,11.2724875 Z M27.3186912,21.7689751 L1.68130877,21.7689751 C0.752268751,21.7689751 0,22.5382868 0,23.4831807 C0,24.4316418 0.752268751,25.1973864 1.68130877,25.1973864 L27.3186912,25.1973864 C28.2477312,25.1973864 29,24.4304528 29,23.4831807 C29,22.5382868 28.2477312,21.7689751 27.3186912,21.7689751 L27.3186912,21.7689751 Z" id="Shape"></path>
                            </g>
                        </g>
                    </g>
                </g>
            </g>
        </g>
    </g>
</svg>