<?xml version="1.0" encoding="utf-8"?>
<!-- Generator: Adobe Illustrator 19.2.0, SVG Export Plug-In . SVG Version: 6.00 Build 0)  -->
<svg version="1.1" xmlns="http://www.w3.org/2000/svg" xmlns:xlink="http://www.w3.org/1999/xlink" x="0px" y="0px"
	 viewBox="0 0 1050.1 191.5" style="enable-background:new 0 0 1050.1 191.5;" xml:space="preserve">
<g>
	<g>
		<path fill="#5F6358" d="M441.3,136c-29.1,0-52.8-23.7-52.8-52.8c0-29.1,23.7-52.8,52.8-52.8s52.8,23.7,52.8,52.8
			C494.1,112.3,470.4,136,441.3,136z M441.3,46.2c-20.4,0-37,16.6-37,37s16.6,37,37,37c20.4,0,37-16.6,37-37S461.7,46.2,441.3,46.2z
			"></path>
	</g>
	<g>
		<path fill="#5F6358" d="M336.5,86.9c-2,0-3.7-1.7-3.7-3.7c0-6.2-5.1-11.3-11.3-11.3c-6.2,0-11.3,5.1-11.3,11.3c0,2-1.7,3.7-3.7,3.7
			c-2,0-3.7-1.7-3.7-3.7c0-10.3,8.4-18.7,18.7-18.7s18.7,8.4,18.7,18.7C340.2,85.2,338.6,86.9,336.5,86.9z"></path>
	</g>
	<g>
		<path fill="#5F6358" d="M261.9,163c-4.8,0-9.6-1.8-13.2-5.5c-1.4-1.4-1.4-3.8,0-5.2c1.4-1.4,3.8-1.4,5.2,0c4.4,4.4,11.5,4.4,15.9,0
			c1.4-1.4,3.8-1.4,5.2,0c1.4,1.4,1.4,3.8,0,5.2C271.4,161.2,266.6,163,261.9,163z"></path>
	</g>
	<g>
		<path fill="#5F6358" d="M216.8,86.9c-2,0-3.7-1.7-3.7-3.7c0-6.2-5.1-11.3-11.3-11.3c-6.2,0-11.3,5.1-11.3,11.3c0,2-1.7,3.7-3.7,3.7
			s-3.7-1.7-3.7-3.7c0-10.3,8.4-18.7,18.7-18.7c10.3,0,18.7,8.4,18.7,18.7C220.5,85.2,218.8,86.9,216.8,86.9z"></path>
	</g>
	<g>
		<path fill="#5F6358" d="M201.8,136c-29.1,0-52.8-23.7-52.8-52.8c0-4.4,3.5-7.9,7.9-7.9c4.4,0,7.9,3.5,7.9,7.9c0,20.4,16.6,37,37,37
			c20.4,0,37-16.6,37-37c0-4.4,3.5-7.9,7.9-7.9s7.9,3.5,7.9,7.9C254.7,112.3,231,136,201.8,136z"></path>
	</g>
	<g>
		<path fill="#5F6358" d="M366.5,91.1c-4.4,0-7.9-3.5-7.9-7.9c0-20.4-16.6-37-37-37c-20.4,0-37,16.6-37,37c0,4.4-3.5,7.9-7.9,7.9
			c-4.4,0-7.9-3.5-7.9-7.9c0-29.1,23.7-52.8,52.8-52.8s52.8,23.7,52.8,52.8C374.4,87.6,370.8,91.1,366.5,91.1z"></path>
	</g>
	<g>
		<path fill="#5F6358" d="M82.1,136c-29.1,0-52.8-23.7-52.8-52.8c0-4.4,3.5-7.9,7.9-7.9s7.9,3.5,7.9,7.9c0,20.4,16.6,37,37,37
			c20.4,0,37-16.6,37-37c0-4.4,3.5-7.9,7.9-7.9c4.4,0,7.9,3.5,7.9,7.9C134.9,112.3,111.2,136,82.1,136z"></path>
	</g>
	<g>
		<path fill="#5F6358" d="M127,91.1c-4.4,0-7.9-3.5-7.9-7.9V38.3c0-4.4,3.5-7.9,7.9-7.9c4.4,0,7.9,3.5,7.9,7.9v44.9
			C134.9,87.6,131.4,91.1,127,91.1z"></path>
	</g>
	<g>
		<path fill="#5F6358" d="M156.9,91.1c-4.4,0-7.9-3.5-7.9-7.9V38.3c0-4.4,3.5-7.9,7.9-7.9c4.4,0,7.9,3.5,7.9,7.9v44.9
			C164.9,87.6,161.3,91.1,156.9,91.1z"></path>
	</g>
	<g>
		<path fill="#5F6358" d="M246.7,91.1c-4.4,0-7.9-3.5-7.9-7.9V38.3c0-4.4,3.5-7.9,7.9-7.9s7.9,3.5,7.9,7.9v44.9
			C254.7,87.6,251.1,91.1,246.7,91.1z"></path>
	</g>
	<g>
		<path fill="#5F6358" d="M276.7,136c-4.4,0-7.9-3.5-7.9-7.9V83.2c0-4.4,3.5-7.9,7.9-7.9c4.4,0,7.9,3.5,7.9,7.9v44.9
			C284.6,132.5,281,136,276.7,136z"></path>
	</g>
	<g>
		<path fill="#5F6358" d="M366.5,136c-4.4,0-7.9-3.5-7.9-7.9V83.2c0-4.4,3.5-7.9,7.9-7.9c4.4,0,7.9,3.5,7.9,7.9v44.9
			C374.4,132.5,370.8,136,366.5,136z"></path>
	</g>
</g>
<g>
	<path fill="#5F6358" d="M597.7,36.8v91.6c0,2.8-2.3,4.9-4.9,4.9s-4.8-2.1-4.8-4.9V52.7L561,104c-0.8,1.7-2.5,2.7-4.7,2.7
		c-2.3,0-4-1-4.8-2.7l-26.7-51.3v75.8c0,2.8-2.3,4.9-4.9,4.9c-2.7,0-4.9-2.1-4.9-4.9V36.8c0-3.3,2.3-5.4,5.4-5.4
		c2.4,0,4.1,1.1,5.2,3.3l30.8,58.1l30.8-58.1c1.1-2.1,2.8-3.3,5.1-3.3C595.5,31.4,597.7,33.6,597.7,36.8z"></path>
	<path fill="#5F6358" d="M670.6,32.9c2.8,0,4.7,2.1,4.7,4.7c0,2.7-1.8,4.8-4.7,4.8H632v33.5h36.8c2.8,0,4.8,2,4.8,4.7s-2,4.8-4.8,4.8
		H632v37.2h39.6c2.8,0,4.7,2.1,4.7,4.7c0,2.7-1.8,4.8-4.7,4.8h-43.3c-3.4,0-6.2-2.5-6.2-6.1v-87c0-3.5,2.8-6.1,6.2-6.1H670.6z"></path>
	<path fill="#5F6358" d="M721.1,32.9c22.6,0,36.9,13,36.9,36.1v27c0,22.9-14.1,36.1-36.9,36.1h-19.5c-3.4,0-6.2-2.5-6.2-6.1v-87
		c0-3.5,2.8-6.1,6.2-6.1H721.1z M705.3,42.2v80.5h16.3c16.5,0,26.6-9.9,26.6-26.6V68.8c0-16.8-10.2-26.6-26.6-26.6H705.3z"></path>
	<path fill="#5F6358" d="M789.3,36.2v92.4c0,2.8-2.3,4.8-4.9,4.8s-5-2-5-4.8V36.2c0-2.8,2.3-4.8,5-4.8S789.3,33.4,789.3,36.2z"></path>
	<path fill="#5F6358" d="M864.5,37c2.3,1.3,3.5,2.5,3.5,4.7c0,2.3-2,4.5-4.7,4.5c-1.1,0-2.1-0.4-3.1-1c-5.4-3.1-10-4.5-15.8-4.5
		c-14.7,0-23.9,9.1-23.9,23.5v36.6c0,14.6,9.3,23.5,23.9,23.5c5.5,0,10.3-1.6,15.1-4.2c1.7-0.8,2.7-1.3,3.8-1.3
		c2.4,0,4.7,1.8,4.7,4.5c0,1.8-0.8,3.1-2.5,4.2c-6.2,4.2-13.7,5.9-21.1,5.9c-19.9,0-33.8-12.4-33.8-33.2V64.7
		c0-21.1,13.9-33.2,33.8-33.2C852.2,31.4,858.4,33.7,864.5,37z"></path>
	<path fill="#5F6358" d="M919.6,35.1l30.8,91.4c0.3,0.8,0.4,1.7,0.4,2.3c0,2.7-2,4.7-4.8,4.7c-2,0-4-1.1-4.7-3.3l-7.9-24.5h-38.6
		l-7.9,24.5c-0.7,2.1-2.7,3.3-4.7,3.3c-2.8,0-4.8-2-4.8-4.7c0-0.6,0.1-1.4,0.4-2.3l30.8-91.4c0.8-2.3,3.1-3.7,5.5-3.7
		C916.5,31.4,918.8,32.9,919.6,35.1z M897.9,96.6h32.7l-16.3-50.2L897.9,96.6z"></path>
	<path fill="#5F6358" d="M976.3,36.4v86.1h39.6c2.8,0,4.7,2.1,4.7,4.7c0,2.7-1.8,4.8-4.7,4.8h-43.3c-3.4,0-6.2-2.7-6.2-6.1V36.4
		c0-2.8,2.3-4.9,5-4.9C974.1,31.4,976.3,33.6,976.3,36.4z"></path>
</g>
</svg>
