<svg viewBox="0 0 29 32" xmlns="http://www.w3.org/2000/svg"><g fill="none" fill-rule="evenodd"><path d="M9.63064783,31.9945022 C6.40702464,31.9945022 3.18396184,30.7604581 0.730309662,28.2915242 C-0.243361836,27.3119295 -0.243361836,25.7239119 0.730309662,24.7443172 C1.70258019,23.7647225 3.28132899,23.7645815 4.25514058,24.7440352 C7.21860435,27.725533 12.0405899,27.7262379 15.0040536,24.745304 C15.9785657,23.7657093 17.556614,23.7665551 18.529585,24.7460088 C19.5026961,25.7257445 19.5026961,27.3137621 18.5288845,28.2932159 C16.0759329,30.7604581 12.85287,31.9945022 9.63064783,31.9945022" fill="#FFF"/><path d="M2.82203623,2.82486696 L2.82203623,16.8068934 L4.70073188,14.8326203 C4.96495411,14.554911 5.33046618,14.3978714 5.71264976,14.3978714 L11.5450121,14.3978714 C14.0569444,14.3978714 16.1005338,12.3414132 16.1005338,9.81383612 L16.1005338,2.82486696 L2.82203623,2.82486696 Z M1.42078986,21.7271401 C1.24524879,21.7271401 1.06830676,21.6940123 0.898929952,21.6255013 C0.367963768,21.4109463 0.0201038647,20.8930256 0.0201038647,20.3173075 L0.0201038647,1.41517533 C0.0201038647,0.636602643 0.647456522,0.00548370044 1.42107005,0.00548370044 L17.5015,0.00548370044 C18.2752536,0.00548370044 18.9024662,0.636602643 18.9024662,1.41517533 L18.9024662,9.81383612 C18.9024662,13.8961621 15.60193,17.2172546 11.5450121,17.2172546 L6.31072222,17.2172546 L2.43298792,21.2922502 C2.16344203,21.5755982 1.79568841,21.7269991 1.42078986,21.7271401 L1.42078986,21.7271401 Z" fill="#FFF" transform="translate(10.087 .135)"/></g></svg>